HIERARCHY
ROOT Hips
{
	OFFSET	0.00	0.00	0.00
	CHANNELS 6 Xposition Yposition Zposition Zrotation Xrotation Yrotation
	JOINT LeftUpLeg
	{
		OFFSET	 0.126116	-0.014019	-0.065224
		CHANNELS 3 Zrotation Xrotation Yrotation
		JOINT LeftLeg
		{
			OFFSET	 0.000000	 0.000000	 0.569914
			CHANNELS 3 Zrotation Xrotation Yrotation
			JOINT LeftFoot
			{
				OFFSET	 0.000000	 0.000000	 0.544423
				CHANNELS 3 Zrotation Xrotation Yrotation
				JOINT LeftToeBase
				{
					OFFSET	 0.000000	 0.000000	 0.207117
					CHANNELS 3 Zrotation Xrotation Yrotation
					End Site
					{
						OFFSET	 0.000000	 0.000000	 0.207117
					}
				}
			}
		}
	}
	JOINT RightUpLeg
	{
		OFFSET	-0.124023	-0.008373	-0.065224
		CHANNELS 3 Zrotation Xrotation Yrotation
		JOINT RightLeg
		{
			OFFSET	 0.000000	 0.000000	 0.570047
			CHANNELS 3 Zrotation Xrotation Yrotation
			JOINT RightFoot
			{
				OFFSET	 0.000000	 0.000000	 0.544354
				CHANNELS 3 Zrotation Xrotation Yrotation
				JOINT RightToeBase
				{
					OFFSET	 0.000000	 0.000000	 0.207540
					CHANNELS 3 Zrotation Xrotation Yrotation
					End Site
					{
						OFFSET	 0.000000	 0.000000	 0.207540
					}
				}
			}
		}
	}
	JOINT Spine
	{
		OFFSET	 0.000184	-0.007763	 0.117403
		CHANNELS 3 Zrotation Xrotation Yrotation
		JOINT Spine1
		{
			OFFSET	 0.000000	 0.000000	 0.137269
			CHANNELS 3 Zrotation Xrotation Yrotation
			JOINT Spine2
			{
				OFFSET	 0.000000	 0.000000	 0.156879
				CHANNELS 3 Zrotation Xrotation Yrotation
				JOINT LeftShoulder
				{
					OFFSET	 0.080501	-0.002496	 0.160144
					CHANNELS 3 Zrotation Xrotation Yrotation
					JOINT LeftArm
					{
						OFFSET	 0.000000	 0.000000	 0.164363
						CHANNELS 3 Zrotation Xrotation Yrotation
						JOINT LeftForeArm
						{
							OFFSET	 0.000000	 0.000000	 0.364576
							CHANNELS 3 Zrotation Xrotation Yrotation
							JOINT LeftHand
							{
								OFFSET	 0.000000	 0.000000	 0.360812
								CHANNELS 3 Zrotation Xrotation Yrotation
								JOINT LeftHandIndex1
								{
									OFFSET	 0.000000	 0.000000	 0.086006
									CHANNELS 3 Zrotation Xrotation Yrotation
									JOINT LeftHandIndex2
									{
										OFFSET	 0.000000	 0.000000	 0.047236
										CHANNELS 3 Zrotation Xrotation Yrotation
										JOINT LeftHandIndex3
										{
											OFFSET	-0.004284	-0.000551	 0.038166
											CHANNELS 3 Zrotation Xrotation Yrotation
											End Site
											{
												OFFSET	-0.004284	-0.000551	 0.038166
											}
										}
									}
								}
							}
						}
					}
				}
				JOINT Neck
				{
					OFFSET	 0.000000	 0.000000	 0.176489
					CHANNELS 3 Zrotation Xrotation Yrotation
					JOINT Head
					{
						OFFSET	 0.000000	-0.001747	 0.077940
						CHANNELS 3 Zrotation Xrotation Yrotation
						End Site
						{
							OFFSET	 0.000000	-0.001747	 0.077940
						}
					}
				}
				JOINT RightShoulder
				{
					OFFSET	-0.080363	 0.000306	 0.159706
					CHANNELS 3 Zrotation Xrotation Yrotation
					JOINT RightArm
					{
						OFFSET	 0.000000	 0.000000	 0.164196
						CHANNELS 3 Zrotation Xrotation Yrotation
						JOINT RightForeArm
						{
							OFFSET	 0.000000	 0.000000	 0.365611
							CHANNELS 3 Zrotation Xrotation Yrotation
							JOINT RightHand
							{
								OFFSET	 0.000000	 0.000000	 0.360648
								CHANNELS 3 Zrotation Xrotation Yrotation
								JOINT RightHandIndex1
								{
									OFFSET	 0.000000	 0.000000	 0.069977
									CHANNELS 3 Zrotation Xrotation Yrotation
									JOINT RightHandIndex2
									{
										OFFSET	 0.000000	 0.000000	 0.052305
										CHANNELS 3 Zrotation Xrotation Yrotation
										JOINT RightHandIndex3
										{
											OFFSET	 0.009002	-0.000782	 0.042196
											CHANNELS 3 Zrotation Xrotation Yrotation
											End Site
											{
												OFFSET	 0.009002	-0.000782	 0.042196
											}
										}
									}
								}
							}
						}
					}
				}
			}
		}
	}
}
MOTION
Frames:    4
Frame Time: 0.03333334
 0.000551	 0.041320	 1.275320	-0.106780	 1.985934	 0.597150	 3.716781	-5.295808	 178.083400	 2.390294	-13.453770	 0.653536	-0.578593	 71.443680	 0.336181	-2.385833	 28.452750	 0.000004	 3.897746	-4.636165	-178.553100	-0.812420	-11.556750	 0.869830	 5.613589	 70.158840	 0.704553	 2.384659	 28.388700	-0.000001	 0.560635	 6.635813	 0.087110	 0.398330	-3.795906	 0.176725	-0.708010	 6.711742	 0.294608	-91.291310	 70.654280	-178.123500	-8.164795	 2.731913	-22.178930	 26.483060	-0.137297	-0.495147	-10.646450	-21.131070	-4.157586	-2.027600	 6.559038	 9.033609	-5.188889	 0.308190	 3.541030	-5.234859	 0.342567	 0.430617	 4.126602	 15.521710	-5.980440	-5.871562	-11.617710	 1.968865	 89.180570	 69.873870	 177.723100	 10.288190	 8.573437	 4.787309	-25.746320	-9.791426	 27.510830	 8.302571	-21.642890	 6.937749	 1.803333	 3.979147	-15.098590	 4.898592	 3.004813	-9.310344	 5.224449	 0.395017	 2.014677
 0.000371	 0.043363	 1.275920	-0.084247	 2.457886	 0.638847	 3.736905	-5.679579	 178.061000	 2.281981	-12.963740	 0.605798	-0.351979	 71.004880	 0.195960	-2.385833	 28.452750	 0.000004	 3.790322	-4.879713	-178.530200	-0.805392	-10.792410	 0.814343	 5.292150	 69.651010	 1.031684	 2.384659	 28.388700	-0.000001	 0.162759	 7.151508	 0.096191	 0.368439	-5.329949	 0.143951	-0.633504	 8.688011	 0.341648	-91.174230	 69.820020	-177.837800	-7.382724	 2.285859	-23.570120	 25.870180	-0.130911	-0.609975	-9.626466	-22.366320	-4.441563	-2.027600	 6.559038	 9.033609	-5.188889	 0.308190	 3.541030	-5.234859	 0.342567	 0.430617	 4.360127	 17.703160	-6.659805	-5.770068	-13.082540	 1.901702	 89.021220	 68.727070	 177.379100	 9.813663	 8.268065	 5.687803	-25.459260	-9.946536	 28.401250	 7.146507	-22.432830	 6.624701	 1.803333	 3.979147	-15.098590	 4.898592	 3.004813	-9.310344	 5.224449	 0.395017	 2.014677
 0.000198	 0.045662	 1.276250	-0.063062	 2.903382	 0.683080	 3.752427	-6.121353	 178.032100	 2.182979	-12.618430	 0.568254	-0.132782	 70.624860	 0.055995	-2.385833	 28.452750	 0.000004	 3.690735	-5.180280	-178.517900	-0.796532	-10.173730	 0.769742	 5.026787	 69.199420	 1.300361	 2.384659	 28.388700	-0.000001	-0.230260	 7.562499	 0.086307	 0.331350	-6.494834	 0.148763	-0.552633	 10.431660	 0.362458	-91.056430	 69.027500	-177.572200	-6.591008	 2.192226	-25.064270	 25.297710	-0.125024	-0.725447	-8.708282	-23.483260	-4.744882	-2.027600	 6.559038	 9.033609	-5.188889	 0.308190	 3.541030	-5.234859	 0.342567	 0.430617	 4.609633	 19.773250	-7.318963	-5.662407	-14.465180	 1.837806	 88.860340	 67.637810	 177.060500	 9.270639	 8.386113	 6.651860	-25.228190	-10.063430	 29.131620	 6.075451	-23.156580	 6.336050	 1.803333	 3.979147	-15.098590	 4.898592	 3.004813	-9.310344	 5.224449	 0.395017	 2.014677
-0.000102	 0.048656	 1.276255	-0.019286	 3.476696	 0.745493	 3.727489	-6.882335	 177.982400	 2.156523	-12.562510	 0.560013	 0.035639	 70.412870	-0.102495	-2.385833	 28.452750	 0.000004	 3.563300	-5.772034	-178.533500	-0.794396	-9.800671	 0.742172	 4.751536	 68.825770	 1.594401	 2.384659	 28.388700	-0.000001	-0.572276	 7.987985	 0.088844	 0.315596	-7.703854	 0.114049	-0.576779	 12.040030	 0.414310	-90.963040	 68.387170	-177.380700	-5.798692	 2.647481	-26.627120	 24.640380	-0.116654	-0.847753	-8.039888	-24.830160	-5.221042	-2.027600	 6.559038	 9.033609	-5.188889	 0.308190	 3.541030	-5.234859	 0.342567	 0.430617	 4.703660	 21.622360	-7.875224	-5.495727	-15.815840	 1.785922	 88.701690	 66.534800	 176.781600	 8.516856	 8.888866	 7.671959	-24.881650	-10.044650	 29.730640	 5.068302	-24.041930	 6.139213	 1.803333	 3.979147	-15.098590	 4.898592	 3.004813	-9.310344	 5.224449	 0.395017	 2.014677
